<?xml version="1.0" standalone="no"?>
<!DOCTYPE svg PUBLIC "-//W3C//DTD SVG 20010904//EN"
 "http://www.w3.org/TR/2001/REC-SVG-20010904/DTD/svg10.dtd">
<svg version="1.0" xmlns="http://www.w3.org/2000/svg"
 width="128.000000pt" height="128.000000pt" viewBox="0 0 128.000000 128.000000"
 preserveAspectRatio="xMidYMid meet">

<g transform="translate(0.000000,128.000000) scale(0.100000,-0.100000)"
fill="#000000" stroke="none">
<path d="M490 1260 c-156 -42 -278 -125 -367 -248 -163 -227 -163 -517 1 -747
66 -92 149 -161 180 -149 31 12 15 45 -57 117 -42 42 -86 98 -105 134 -40 76
-72 197 -72 273 0 76 32 197 72 273 33 62 156 197 180 197 7 0 33 -36 56 -80
l44 -81 -47 -50 c-25 -27 -58 -75 -73 -107 -23 -49 -27 -70 -27 -152 0 -82 4
-103 27 -152 33 -70 94 -138 153 -169 28 -15 43 -29 40 -37 -29 -76 -67 -234
-59 -242 22 -22 157 -42 244 -36 162 10 294 70 405 181 112 113 165 220 187
377 44 308 -159 609 -467 694 -90 25 -230 27 -315 4z m310 -76 c134 -39 266
-144 334 -266 20 -36 36 -71 36 -79 0 -9 -28 -22 -82 -37 -46 -12 -88 -22 -93
-22 -6 0 -21 20 -34 45 -53 100 -176 178 -286 179 -58 1 -60 0 -63 -26 -3 -29
-3 -29 83 -43 85 -14 170 -78 213 -159 23 -44 27 -63 27 -136 0 -73 -4 -92
-27 -136 -115 -219 -424 -215 -539 6 -20 37 -24 60 -24 130 0 73 4 92 27 137
16 29 52 73 83 99 30 26 55 52 55 56 0 5 -27 56 -59 113 -52 92 -58 106 -43
114 21 10 109 38 142 45 45 8 194 -3 250 -20z m404 -461 c16 -98 -5 -226 -53
-330 -17 -34 -33 -63 -36 -63 -3 0 -39 25 -81 57 -56 42 -73 60 -68 72 30 67
43 125 44 182 l0 66 88 25 c48 14 90 26 93 27 4 0 9 -16 13 -36z m-204 -398
c36 -27 67 -50 70 -53 10 -8 -103 -101 -158 -130 -102 -53 -157 -67 -274 -67
-59 0 -111 5 -116 10 -6 6 0 43 16 96 l25 87 87 4 c73 3 98 9 152 36 35 17 74
43 87 56 15 16 29 22 35 18 6 -5 40 -30 76 -57z"/>
</g>
</svg>
